<svg xmlns="http://www.w3.org/2000/svg" viewBox="0 0 325.26 360.46"><defs><style>.cls-1{fill:#ff47c5;}</style></defs><g id="Layer_2" data-name="Layer 2"><g id="Layer_5" data-name="Layer 5"><path class="cls-1" d="M121.56,119.16c13.82-31-26.63-61.21-14-91.9C113.43,13,127.46,6.51,131,4.9c1.92-.89,24.89-11.06,40.51.81,12.9,9.81,12.94,28.76,13.08,34.09,1,35.32-31.13,53.29-21.35,76.9.65,1.56,2.19,6.25,6.53,9.23,5.4,3.72,11.82,2.62,14.17,2.22,14.74-2.5,26.63-18.39,32.05-25C234.31,81,267.78,57.7,293.85,63.61c12,2.73,23.49,11.9,28.41,23.78,5.4,13,3.39,30.25-5,41-27.24,35.07-109,2-119.44,27.27-2,4.94-1,11.4,1.34,15.8,5.71,10.65,21.21,10.75,33.13,12.27,29.42,3.73,68.67,20.07,72.88,39.43,3,14-10.74,35.78-28,39.21C242.85,269.2,211,200.2,178.5,211.8a18,18,0,0,0-8.34,5.12c-18.38,21.47,42,76,24.57,116.8-6.44,15.08-22.85,26.8-38.27,26.74-14.41-.06-29.27-10.43-36.31-23.91-19.87-38.1,30.2-86.74,7.69-119.47-2.59-3.76-5.74-8-11.28-10.06-24.27-9.07-45.14,45.1-74.35,39.3-13.35-2.65-25-17.15-25.86-29.67-1.09-16.34,16.25-30.31,28.76-36,20.6-9.37,39.43-.42,47.29-13.56.54-.91,4.2-7.05,2.11-12.48-2.74-7.11-30-1.64-62.71-8.37-19.39-4-23.79-8.88-25.1-10.46C-3.74,123.15-1.88,98.19,11.62,87.4c10.08-8.06,23.68-5.85,26.75-5.31,36.48,6.39,49.12,56,68.71,52.43C115.4,133,119.94,122.81,121.56,119.16Z"/></g></g></svg>