<svg xmlns="http://www.w3.org/2000/svg" viewBox="0 0 177.32 274.77"><defs><style>.cls-1{fill:#ff47c5;}</style></defs><g id="Layer_2" data-name="Layer 2"><g id="Layer_1-2" data-name="Layer 1"><g id="Layer_2-2" data-name="Layer 2"><g id="Layer_5" data-name="Layer 5"><path class="cls-1" d="M76.16,41.22C80.94,30.5,67,20.05,71.32,9.43c2-4.93,6.88-7.18,8.11-7.73.66-.31,8.61-3.83,14,.28C97.9,5.37,97.92,11.92,98,13.77,98.31,26,87.2,32.2,90.58,40.37a6.53,6.53,0,0,0,2.26,3.19,6.58,6.58,0,0,0,4.9.77c5.1-.86,9.21-6.36,11.09-8.65C115.16,28,126.74,20,135.76,22a14.46,14.46,0,0,1,9.83,8.23,15,15,0,0,1-1.73,14.18c-9.42,12.14-37.71.7-41.32,9.44a6.91,6.91,0,0,0,.47,5.46c2,3.69,7.33,3.72,11.46,4.25,10.17,1.29,23.75,6.94,25.21,13.64,1,4.84-3.72,12.37-9.69,13.56-11.87,2.36-22.89-21.51-34.13-17.49l-.24.08A9.33,9.33,0,0,0,93,75c-1.45,1.36-5,16.14,4.14,23.38a16.39,16.39,0,0,0,8.28,3.32c.25,9-1.56,11.86-3.44,12.68-3.09,1.36-5.63-3.2-11.6-3.27-7.4-.09-10.78,6.65-14.68,5.27-2-.7-4.1-3.53-4.5-13a24.42,24.42,0,0,0,4-1.67A23.17,23.17,0,0,0,80,98.47c4.61-4.38,4.31-16.11-1.66-23.38-1.64-2-2.48-3-3.9-3.48C66,68.48,58.82,87.21,48.71,85.21c-4.62-.92-8.65-5.93-8.94-10.27-.38-5.65,5.62-10.48,9.95-12.45,7.12-3.24,13.64-.14,16.35-4.69.19-.31,1.46-2.44.73-4.32-.94-2.46-10.37-.56-21.69-2.89C38.4,49.2,36.88,47.52,36.43,47c-3.61-4.37-3-13,1.7-16.74,3.49-2.78,8.19-2,9.25-1.83,12.62,2.21,17,19.37,23.77,18.13C74,46,75.6,42.48,76.16,41.22Z"/></g></g><path class="cls-1" d="M26.38,130c4.39-4.67,22.7-23.3,51.75-28.13a87.09,87.09,0,0,1,23-.7c11.48,1.19,38.26,6.32,57.42,28.7,27.86,32.55,16.91,75,15.45,80.36-.83,3-12.91,44.4-50.33,59.14-13.91,5.49-26.68,5.46-34.47,5.43q-27.21-.09-48-11.37c-5.62-3-20.85-11.4-30.81-27.4C-9.46,204.16,1,157,26.38,130Zm26.75,1c-13.52,12.31-17.6,27.54-19.28,34.15-2.84,11.16-7.58,29.83,2,43.17,5.74,8,10.7,5.8,19.52,16.73,8.33,10.34,6,14.9,13.41,21.59,8.68,7.79,19.71,9.14,25.81,9.16q17.15,0,30.48-6.37T146,232.6a80.8,80.8,0,0,0,11.46-22,73.24,73.24,0,0,0,3.92-23.2q.09-27.43-18-49.53a60.15,60.15,0,0,0-18.74-15.48,61.45,61.45,0,0,0-28.95-6.7,69.89,69.89,0,0,0-32.64,8A60.7,60.7,0,0,0,53.13,131Z"/></g></g></svg>