<svg xmlns="http://www.w3.org/2000/svg" viewBox="0 0 273.12 269.32"><defs><style>.cls-1{fill:#ff47c5;}</style></defs><g id="Layer_2" data-name="Layer 2"><g id="Layer_1-2" data-name="Layer 1"><path class="cls-1" d="M195,177c-4.15,4.22-21.46,21.06-48.92,25.42a85.29,85.29,0,0,1-21.72.64c-10.85-1.08-36.16-5.72-54.27-26-26.34-29.43-16-67.86-14.6-72.66.78-2.71,12.2-40.15,47.56-53.48C116.18,46,128.25,46,135.61,46q25.71.09,45.39,10.28c5.31,2.76,19.71,10.32,29.12,24.78C228.84,109.86,219,152.52,195,177ZM169.69,176c12.78-11.13,16.63-24.9,18.22-30.88,2.68-10.09,7.16-27-1.87-39-5.43-7.26-10.12-5.24-18.45-15.13-7.87-9.35-5.64-13.47-12.68-19.52-8.2-7-18.63-8.26-24.39-8.28q-16.22,0-28.81,5.76T82,84.14A71.69,71.69,0,0,0,71.12,104a63.62,63.62,0,0,0-3.71,21q-.09,24.79,17,44.78a56.37,56.37,0,0,0,17.71,14,60.38,60.38,0,0,0,27.37,6.06,68.4,68.4,0,0,0,30.85-7.27A56.38,56.38,0,0,0,169.69,176Z"/><path class="cls-1" d="M59.4,94.17c.33-.7.78-1.7,1.24-2.92A32.37,32.37,0,0,0,62.81,76c-.24-1.88-1.33-10.45-5.18-11.19C55.5,64.4,53.46,66.64,50,70c-5.26,5.12-5,7.86-8.75,9.41a10.53,10.53,0,0,1-9.74-.88,8.59,8.59,0,0,1-3.74-6.79C28,64.7,40.54,64.22,43.06,56.09c2.3-7.45-5.63-15.59-10-20.05-1.54-1.58-8.14-8.35-12.52-6.79a3.06,3.06,0,0,0-1.37.87c-1.87,2.2,1.26,6.23,2.73,11.34.54,1.84,2.82,9.76-.79,13.79C17,59.79,5.79,59,2,53.94c-2.89-3.86,1.06-7,1.68-17C4.66,21.34-3.82,12.11,2.14,4A10,10,0,0,1,4,2.06c5.57-4.43,14.45-.58,22.7,1.06,20,4,30.36-6.21,35.85-.08C66.07,7,65,15,61.27,17.76c-2.15,1.56-5.2,1.15-11.29.34C41.39,17,36.14,14.56,34.64,16.51c-.16.22-.4.64-.29,1.86.42,4.58,4.7,8,6.79,9.58,10,7.7,15,11.56,17.58,11.07,7.39-1.42,7-13.69,16-15.43.43-.08,5.3-1,8.57,1.85a8.76,8.76,0,0,1,2.79,5.91C86.38,40,71.94,44.42,73.3,49.82c.7,2.8,5.12,4,8.21,4.87,7.28,2,14.21-.76,16.72-1.75,1-.37,1.71-.73,2.24-1Z"/><path class="cls-1" d="M240.91,18c-.15-.22-.38-.31-.92-.49-4.27-1.43-8.57.76-11.88,2.11-6.31,2.57-10.93,4.22-15.31,2.85-.44-.14-4.68-1.53-6.14-5.25-1.8-4.56,1.84-9.32,2.29-9.9,3.43-4.36,9.15-5.3,28.05-6,26.24-.91,28.49.44,30,1.77,3.53,3.13,1.92,5.31,4.56,28.45,1.62,14.19,3,19.86-1.19,24.27a13.86,13.86,0,0,1-10.63,4.21c-3.51-.21-8.18-2-10.11-5.58-4.49-8.43,8.39-21.79,4.69-25a2.5,2.5,0,0,0-1.23-.49c-5.1-1.09-11.77,6.51-24.31,22.77-15,19.51-19,26.18-16.62,32.7a12.24,12.24,0,0,0,1.44,2.77L181,56.3a11.84,11.84,0,0,0,3.43,1.84c5.48,1.84,12.19-.55,33.54-17.62C229,31.71,242.7,20.65,240.91,18Z"/><path class="cls-1" d="M116.27,201.85a8.83,8.83,0,0,1,1.6.29c10.37,2.76,15.78,22.63,11.85,25.14a1.85,1.85,0,0,1-.76.26c-7.61.83-18.63-3.94-26.59-1.13-3,1.07-6.48,3.55-6.64,6.45-.2,3.7,5,6.6,5.33,6.77,9.85,5.32,21.59-4.29,29.28,2.2a7.87,7.87,0,0,1,1.06,1c4.63,5.74-4.44,14.25-.73,21.31a10.24,10.24,0,0,0,8.33,5.14c3.25.14,7.14-1.54,8.77-4.52,3.73-6.8-6-17.31-2.48-20.28a3.08,3.08,0,0,1,1.24-.55c8.19-2.35,16,1,24-.88,3.43-.81,9.36-3.19,9.87-7,.43-3.21-3-7.19-7-8.63-8.4-3-16.74,5.88-23.68,1.16-.12-.08-.32-.22-.59-.44-7.43-6.12-4.38-23.11,3.68-27a9,9,0,0,1,2.42-.77Z"/></g></g></svg>