<svg xmlns="http://www.w3.org/2000/svg" viewBox="0 0 1602.68 1754.98"><defs><style>.cls-1{fill:#ff47c5;}</style></defs><g id="Layer_2" data-name="Layer 2"><g id="Layer_5" data-name="Layer 5"><path class="cls-1" d="M980.07,1054.71c81.29-44.89,179,1.28,208-47,13.53-22.51,7-55.73-9.93-75.88-24.89-29.64-71.16-29.79-79.2-29.82C969.06,901.63,779.39,1187.42,877,1317c36.49,48.44,116.47,77.76,184.85,78.27,85.77.65,162.63-57.8,215.31-24.38,9.22,5.86,22.49,17.47,45.49,21.73,31.44,5.81,45.6-8.69,63.3-5.49,43.67,7.89,93,120.7,47.85,203.42-39.91,73.14-134.2,87.15-164.74,91.69-14.19,2.1-150.67,20.85-211.48-50.57-53.43-62.75-7-140.73-66.68-183.06-21.08-15-49-19.85-72.12-13.67-41.73,11.13-62.24,57.08-68.11,87.79-14,73.26,55.2,135.64,72.36,151.48,130.85,120.86,346.22,71.16,358.43,68.2,47-11.41,148-36,200.78-120.85,50.09-80.65,30.53-173.91,23.11-209.28-17.59-83.85-50.78-87.4-50.85-151-.1-76.23,47.56-140.9,77.4-178.52,45-56.79,72.34-67.61,70.7-99.74-1.45-28.07-24-51.89-45.28-62.24-50.19-24.39-112.08,17-141,47.75a154.15,154.15,0,0,0-28.09,40.91c-25.42,53.47-8.31,101.55-58.91,179.18-6.46,9.91-77.33,115.3-213.35,144-21.91,4.61-157.74,33.26-212.46-32.5C849.08,1234.75,895.74,1101.27,980.07,1054.71Z"/><path class="cls-1" d="M700.18,900.1c13.81-31.05-26.64-61.21-14-91.9,5.88-14.3,19.92-20.75,23.43-22.36,1.93-.89,24.9-11.06,40.52.81,12.9,9.81,12.93,28.76,13.08,34.09,1,35.32-31.13,53.29-21.35,76.9.65,1.56,2.19,6.25,6.52,9.23,5.41,3.72,11.83,2.62,14.18,2.22,14.73-2.5,26.63-18.39,32.05-25,18.34-22.19,51.8-45.5,77.88-39.59,12,2.73,23.49,11.9,28.41,23.78,5.4,13,3.39,30.25-5,41-27.25,35.07-109,2-119.45,27.27-2,4.94-1,11.4,1.34,15.8,5.72,10.65,21.21,10.76,33.14,12.27,29.42,3.74,68.67,20.07,72.88,39.44,3,13.94-10.74,35.77-28,39.2-34.32,6.79-66.14-62.21-98.66-50.61a18,18,0,0,0-8.34,5.12c-18.39,21.47,42,75.95,24.57,116.8-6.44,15.08-22.85,26.81-38.27,26.74-14.41-.06-29.27-10.43-36.31-23.91-19.87-38.1,30.2-86.74,7.69-119.46-2.59-3.77-5.74-8-11.29-10.07-24.27-9.07-45.14,45.1-74.34,39.3-13.35-2.65-25-17.15-25.86-29.67-1.09-16.34,16.25-30.31,28.76-36,20.6-9.36,39.42-.42,47.29-13.56.54-.91,4.2-7,2.11-12.48-2.74-7.11-30-1.63-62.71-8.37-19.4-4-23.79-8.88-25.1-10.46-10.45-12.63-8.59-37.59,4.92-48.38,10.08-8.06,23.68-5.85,26.75-5.31,36.47,6.39,49.12,56,68.7,52.43C694,914,698.56,903.75,700.18,900.1Z"/><path class="cls-1" d="M696.69,58.91c-21.73-13.26-67.51-40.7-163-51.13C478.07,1.7,416-5.07,338.51,16.53c-33.61,9.37-107.1,29.85-170.33,93.28C51.17,227.18,39,421.75,91.34,461.47c5.32,4,12.27,7.21,15.12,15.5,10.59,30.87-62.2,58.48-89.11,124.75C-.56,645.84,5.82,697.36,24.14,732.41c9.43,18.05,40.46,67.13,162.09,92.33C397.15,868.43,697.13,802.33,741,649.19c11.48-40.08,15.84-113.43-23.62-143.11-19.83-14.91-49.75-18.14-74.09-9.63C570,522,597,636.51,527.22,716.72,432,826.21,195.87,826.7,136.16,735.8c-25.83-39.31-21.58-100.26-20.37-118.8,2.4-36.72,6.68-71.09,32.09-91.42,15.78-12.63,33.53-14.54,45.43-35,8.82-15.19,6.19-20.87,9.2-34.3,6-26.62,73.73-45.23,147.77-37.89,50.07,5,57,17.24,93.93,11.87,14.17-2.06,71.75-10.57,82.95-49.61,5.74-20-2.2-45.73-16.73-61.45-46.17-49.92-158.72,1.05-165.61,4.26-62.21,29-101.71,76.18-171.22,81.79-10.36.84-15.38-1.55-19.81-4.35-42-26.6-30.22-183.36,61.7-258.62C290.29,81,387.93,98.46,394.37,99.71,447.22,110,509,145.28,536.75,167.93c6.34,5.17,29,22,62,39.86a124.27,124.27,0,0,0,19.58,8.4c13.7,4.65,89.56,30.43,123.16-14.3,16.75-22.31,17.69-55.1,11.19-78.64C744.62,94.09,723.54,75.28,696.69,58.91Z"/><path class="cls-1" d="M846.8,80c-5.76,36.71,23.58,54,24,97.38.28,34.11-17.59,58.43-26.12,72.24-54.07,87.66-62.16,288.7-7.26,438.77,16.65,45.51,45,120.18,111.88,158,16.37,9.26,77,43.81,120.73,8.94,29.47-23.53,51.4-67.4,36.69-95-20-37.56-85.38-3.87-148.34-47-47.89-32.8-63.55-88.83-81.51-153.11C859.44,498,860.7,447.74,862.69,422.07c2.37-30.66,5.48-66.18,26.17-103.61,13.26-24,25.14-45.44,42.95-55.53a95.34,95.34,0,0,0,26.24-22.1,51.38,51.38,0,0,0,7-11.27c11.27-24.08,3.46-41.56,18.44-55.86.48-.46,10.53-9.82,23.24-10.07,46.21-.92,85.1,119.52,94.74,149.36,6.44,19.95,10.18,34.84,17.34,64.33,14.17,58.41,21.77,101.85,23.77,113.22,30.88,174.87,50.56,286.36,128.76,344.92,50.6,37.9,133.39,59.4,192.79,30.1,110.47-54.51,115.22-272.47,116.49-330.73.07-3.23.1-5.76.12-7.69,1.57-165-58.1-387.31-199.65-447.27-8.32-3.53-75.82-31.29-104.74-3.25-9.21,8.94-21.6,30.43-4.08,92.79,39.33,140,140.7,156.48,193.51,271.29,58,126.22,26.11,303.38-53.94,339-41.61,18.52-87.62-5.06-92.24-7.51-74.44-39.48-86.7-155.76-98.51-267.77-3.14-29.81-7.28-74.44-16.69-149.21-2.26-18-5.36-38.66-10.24-65.9-24.6-137.43-48.18-183.26-65.78-205.59-1.24-1.58-4-4.84-7.7-8.91-13.26-14.57-52.76-57.95-114.89-70.24C988,1,931.35-10.15,886.07,24.3,876.34,31.71,851.49,50.15,846.8,80Z"/><path class="cls-1" d="M785.17,1379c-4.43-21-20.42-92.42-78.63-151.88-31.34-32-102.06-88.29-146.29-91.82-3.07-.24-12-.71-15.75-6.65-8.4-13.28,20.94-35.2,24-66.09,2.37-24.11-12.26-43.6-25.75-61.11-29-37.66-70.46-65.12-129.31-88.27-76.53-30.1-144.34-32-279.94-35.85C110,876.61,70.78,876,36.76,900.74c-8,5.79-29.2,21.21-35.17,45.88-9.25,38.19,24.22,73.12,39.76,96.35,54.64,81.69-12,174-11.11,289.2,1.08,140.41,86.4,310.26,227.75,373.63,110.24,49.41,260.71,35,318.32-24.86,5-5.14,9-10.35,18.47-18.92,62-55.79,115.43-35.86,156.42-66.3C820.08,1544.56,789.37,1398.91,785.17,1379ZM171.67,970.87c39.76-59.58,140.37-55.29,198.82-38.15,25.92,7.6,97.69,28.65,110.16,80.87,17.57,73.57-98.08,144-112.95,152.82-26.95,16-106,62.78-159.77,28.58-39.37-25.06-45.3-82.1-49.16-119.35S150.91,1002,171.67,970.87Zm448.56,450.06c-29.11,52.57-59.72,57.15-71.35,108.86-10.33,45.91,8.83,59.56-3.47,90.72-22.72,57.59-119.22,75.22-187.24,66-63.73-8.61-158.31-48.31-172.34-117.75-10.15-50.24,32.68-62.47,35.09-141,2.47-80.39-40.25-135.92-17.08-157.39,2.65-2.46,18.2-6.79,49.81-9.92a506.1,506.1,0,0,0,51-7.84c26.29-5.3,39.44-7.95,53.25-13.53,9.42-3.8,17.19-7.1,24.14-10.17,26.37-11.64,45.72-21.1,49.08-22.72,22.87-11.05,73.29-35.39,124.7-25.13,8.12,1.62,47.12,9.4,72.6,41.32C671.57,1276.47,649.9,1367.34,620.23,1420.93Z"/></g></g></svg>